<svg width="71" height="71" viewBox="0 0 71 71" fill="none"
	xmlns="http://www.w3.org/2000/svg">
	<circle cx="35.5" cy="35.5" r="35.5" fill="white"/>
	<path d="M57.7197 26.0336C57.4903 26.5955 57.2083 27.1322 56.8779 27.6358C56.6074 27.958 56.2699 28.2108 55.8912 28.3747C55.5126 28.5386 55.1031 28.6092 54.6943 28.5811H53.8576C53.8576 28.7733 53.8321 28.9496 53.827 29.1151C53.827 30.8242 53.8525 32.5278 53.827 34.2315C53.6704 39.3117 51.6074 44.1226 48.0852 47.6213C44.563 51.12 39.8654 53.0244 35.0108 52.9218C30.1563 52.8192 25.536 50.7179 22.1515 47.0732C18.7671 43.4286 16.8912 38.5345 16.9307 33.4518C16.9307 32.0045 16.9307 30.5571 16.9307 29.1098V28.5758H15.9358C15.1753 28.5858 14.4419 28.2801 13.896 27.7257C13.3501 27.1713 13.0361 26.4131 13.0227 25.617C12.9717 23.5822 13.0227 24.1216 13.0227 22.0815C13.0158 21.937 13.0383 21.7927 13.0888 21.658C13.1393 21.5234 13.2165 21.4015 13.3154 21.3005C13.4144 21.1995 13.5326 21.1216 13.6625 21.0721C13.7923 21.0226 13.9308 21.0026 14.0686 21.0134H14.3747C28.374 21.0134 42.3717 21.0134 56.3677 21.0134C56.6401 20.9731 56.9178 21.0243 57.1607 21.1596C57.4036 21.2949 57.5993 21.5074 57.7197 21.7664V26.0336ZM18.854 28.6292C18.854 30.1673 18.854 31.6626 18.854 33.1527C18.8032 35.5484 19.2163 37.9301 20.0683 40.1543C21.3295 43.4422 23.5323 46.2407 26.3741 48.1653C29.7128 50.4461 33.7284 51.3821 37.6762 50.7998C41.6239 50.2174 45.236 48.1561 47.8425 44.9983C50.1077 42.3419 51.4865 38.9867 51.7709 35.4385C51.9444 33.2435 51.8577 31.0271 51.8832 28.8214C51.8773 28.7563 51.8653 28.6919 51.8475 28.6292H18.854ZM14.9512 23.0589V25.1951C14.9512 26.2259 15.2981 26.5837 16.2981 26.5837C18.3949 26.5837 20.4867 26.5837 22.5835 26.5837H54.4443C55.4391 26.5837 55.781 26.2259 55.781 25.1844C55.781 23.7692 55.781 24.9388 55.781 23.5235V23.0696L14.9512 23.0589Z" fill="#141527"/>
	<path d="M34.6968 52.6511C32.9617 52.6412 31.2687 52.0912 29.8332 51.0711C28.3976 50.051 27.2844 48.6069 26.6352 46.9226C25.986 45.2382 25.8301 43.3898 26.1874 41.6124C26.5447 39.8351 27.3991 38.2092 28.6417 36.9416C29.8844 35.674 31.4591 34.822 33.1657 34.4941C34.8722 34.1662 36.6334 34.3771 38.2251 35.1001C39.8168 35.823 41.1671 37.0252 42.1041 38.5539C43.0412 40.0825 43.5226 41.8684 43.4872 43.6843C43.4338 46.0856 42.4835 48.3693 40.8402 50.0457C39.1968 51.722 36.9913 52.6574 34.6968 52.6511ZM34.7376 50.6004C36.0814 50.6014 37.3954 50.1854 38.5134 49.4048C39.6313 48.6243 40.5032 47.5143 41.0186 46.2151C41.534 44.916 41.6699 43.486 41.4091 42.106C41.1483 40.7261 40.5025 39.458 39.5533 38.4622C38.6042 37.4664 37.3943 36.7875 36.0766 36.5113C34.7589 36.2352 33.3926 36.3743 32.1504 36.9109C30.9081 37.4475 29.8458 38.3576 29.0977 39.5262C28.3495 40.6947 27.9491 42.0692 27.9471 43.476C27.9471 45.3609 28.6606 47.1689 29.9314 48.5042C31.2023 49.8395 32.9268 50.5933 34.7274 50.6004H34.7376Z" fill="#141527"/>
	<path d="M47.0569 32.6878C47.1835 32.6885 47.3088 32.7153 47.4255 32.7667C47.5423 32.8181 47.6482 32.893 47.7372 32.9872C47.8263 33.0814 47.8968 33.193 47.9446 33.3157C47.9924 33.4384 48.0167 33.5698 48.016 33.7023C48.0007 33.96 47.8966 34.2032 47.723 34.3867C47.5495 34.5703 47.3183 34.6819 47.0722 34.7007C46.8168 34.6994 46.572 34.5937 46.39 34.4062C46.208 34.2187 46.1031 33.9642 46.0978 33.697C46.0957 33.5643 46.1191 33.4326 46.1665 33.3095C46.2139 33.1865 46.2844 33.0746 46.3738 32.9805C46.4632 32.8865 46.5697 32.8121 46.687 32.7618C46.8044 32.7116 46.9301 32.6864 47.0569 32.6878Z" fill="#141527"/>
	<path d="M35.3482 44.8704C34.3891 44.864 33.4533 44.5602 32.659 43.9974C31.8648 43.4345 31.2477 42.6379 30.8858 41.7081C30.5238 40.7782 30.4333 39.757 30.6256 38.7733C30.8179 37.7897 31.2844 36.8878 31.9662 36.1815C32.648 35.4753 33.5144 34.9965 34.4561 34.8055C35.3977 34.6145 36.3723 34.72 37.2567 35.1086C38.1412 35.4972 38.8957 36.1515 39.425 36.9888C39.9543 37.8261 40.2347 38.8089 40.2307 39.8129C40.2199 41.16 39.7004 42.4479 38.7857 43.3955C37.8709 44.343 36.6352 44.8732 35.3482 44.8704ZM32.4657 39.8449C32.4769 40.4447 32.6573 41.0275 32.9843 41.5201C33.3113 42.0127 33.7702 42.393 34.3033 42.613C34.8364 42.833 35.4198 42.883 35.9799 42.7565C36.5401 42.6301 37.052 42.333 37.4511 41.9026C37.8502 41.4721 38.1187 40.9277 38.2228 40.3379C38.3268 39.748 38.2618 39.1391 38.0358 38.5878C37.8099 38.0366 37.4331 37.5677 36.9531 37.2401C36.473 36.9126 35.9111 36.7412 35.3381 36.7474C34.565 36.7601 33.8283 37.0934 33.2897 37.6741C32.7512 38.2549 32.4548 39.0356 32.4657 39.8449Z" fill="#141527"/>
</svg>
